<svg xmlns="http://www.w3.org/2000/svg" width="1200" height="620" viewBox="0 0 1200 620" fill="none">
  <rect width="1200" height="620" fill="#020617"/>
  <text x="600" y="58" text-anchor="middle" fill="#67e8f9" font-family="Arial, sans-serif" font-size="30" font-weight="700">Frontend Theme Toggle</text>

  <rect x="80" y="110" width="500" height="430" rx="14" fill="#0f172a" stroke="#22d3ee" stroke-width="2"/>
  <text x="330" y="150" text-anchor="middle" fill="#a7f3d0" font-family="Arial, sans-serif" font-size="22" font-weight="700">Dark Arena</text>
  <rect x="120" y="190" width="420" height="70" rx="8" fill="#111827" stroke="#34d399" stroke-width="1.5"/>
  <text x="145" y="232" fill="#bbf7d0" font-family="Arial, sans-serif" font-size="18">Status: AI moderation active</text>
  <rect x="120" y="285" width="180" height="50" rx="8" fill="#164e63" stroke="#22d3ee" stroke-width="1.5"/>
  <text x="210" y="316" text-anchor="middle" fill="#cffafe" font-family="Arial, sans-serif" font-size="16" font-weight="700">Light Mode</text>

  <rect x="620" y="110" width="500" height="430" rx="14" fill="#f8fafc" stroke="#64748b" stroke-width="2"/>
  <text x="870" y="150" text-anchor="middle" fill="#0f172a" font-family="Arial, sans-serif" font-size="22" font-weight="700">Light Spectrum</text>
  <rect x="660" y="190" width="420" height="70" rx="8" fill="#e2e8f0" stroke="#0ea5e9" stroke-width="1.5"/>
  <text x="685" y="232" fill="#1e293b" font-family="Arial, sans-serif" font-size="18">Status: bright palette enabled</text>
  <rect x="660" y="285" width="180" height="50" rx="8" fill="#fef08a" stroke="#b45309" stroke-width="1.5"/>
  <text x="750" y="316" text-anchor="middle" fill="#111827" font-family="Arial, sans-serif" font-size="16" font-weight="700">Dark Mode</text>

  <line x1="560" y1="315" x2="620" y2="315" stroke="#67e8f9" stroke-width="3"/>
  <polygon points="620,315 604,305 604,325" fill="#67e8f9"/>

  <text x="600" y="590" text-anchor="middle" fill="#94a3b8" font-family="Arial, sans-serif" font-size="14">Stored in localStorage as microblog_theme_mode</text>
</svg>
